HIERARCHY
ROOT SpineBase
{
  OFFSET 0.000000 0.000000 0.000000
  CHANNELS 6 Xposition Yposition Zposition Zrotation Xrotation Yrotation
  JOINT SpineMid
  {
    OFFSET -0.000000 32.009310 0.000000
    CHANNELS 3 Zrotation Xrotation Yrotation
    JOINT SpineShoulder
    {
      OFFSET 0.122307 23.750933 -0.700052
      CHANNELS 3 Zrotation Xrotation Yrotation
      JOINT Neck
      {
        OFFSET 0.089398 7.854479 -0.552416
        CHANNELS 3 Zrotation Xrotation Yrotation
        JOINT Head
        {
          OFFSET -5.862015 12.277007 1.774791
          CHANNELS 3 Zrotation Xrotation Yrotation
          End Site
          {
            OFFSET 0 0 0
          }
        }
      }
      JOINT ShoulderLeft
      {
        OFFSET -15.585435 -5.360212 8.536746
        CHANNELS 3 Zrotation Xrotation Yrotation
        JOINT ElbowLeft
        {
          OFFSET -3.057055 -27.631829 3.519289
          CHANNELS 3 Zrotation Xrotation Yrotation
          JOINT WristLeft
          {
            OFFSET 0.501861 -21.500704 -5.162830
            CHANNELS 3 Zrotation Xrotation Yrotation
            JOINT HandLeft
            {
              OFFSET -1.423888 -6.340561 -2.324163
              CHANNELS 3 Zrotation Xrotation Yrotation
              JOINT HandTipLeft
              {
                OFFSET 1.111086 -6.056671 -1.008807
                CHANNELS 3 Zrotation Xrotation Yrotation
                End Site
                {
                  OFFSET 0 0 0
                }
              }
              JOINT ThumbLeft
              {
                OFFSET -2.466483 -0.381420 -3.229428
                CHANNELS 3 Zrotation Xrotation Yrotation
                End Site
                {
                  OFFSET 0 0 0
                }
              }
            }
          }
        }
      }
      JOINT ShoulderRight
      {
        OFFSET 11.635977 -3.004123 -8.932086
        CHANNELS 3 Zrotation Xrotation Yrotation
        JOINT ElbowRight
        {
          OFFSET 9.814197 -24.737957 -4.272066
          CHANNELS 3 Zrotation Xrotation Yrotation
          JOINT WristRight
          {
            OFFSET -2.063755 -22.812876 -9.326875
            CHANNELS 3 Zrotation Xrotation Yrotation
            JOINT HandRight
            {
              OFFSET -3.253721 -4.243498 -2.127730
              CHANNELS 3 Zrotation Xrotation Yrotation
              JOINT HandTipRight
              {
                OFFSET -2.011894 -5.267780 -0.847388
                CHANNELS 3 Zrotation Xrotation Yrotation
                End Site
                {
                  OFFSET 0 0 0
                }
              }
              JOINT ThumbRight
              {
                OFFSET 1.811194 -0.634307 -3.100033
                CHANNELS 3 Zrotation Xrotation Yrotation
                End Site
                {
                  OFFSET 0 0 0
                }
              }
            }
          }
        }
      }
    }
  }
  JOINT HipLeft
  {
    OFFSET -6.531999 -0.061348 -0.075353
    CHANNELS 3 Zrotation Xrotation Yrotation
    JOINT KneeLeft
    {
      OFFSET 5.009684 -36.491629 5.682893
      CHANNELS 3 Zrotation Xrotation Yrotation
      JOINT AnkleLeft
      {
        OFFSET 8.020458 -35.325550 9.383505
        CHANNELS 3 Zrotation Xrotation Yrotation
        JOINT FootLeft
        {
          OFFSET -2.472337 -7.956925 -5.093475
          CHANNELS 3 Zrotation Xrotation Yrotation
          End Site
          {
            OFFSET 0 0 0
          }
        }
      }
    }
  }
  JOINT HipRight
  {
    OFFSET 7.267369 1.936343 -6.795400
    CHANNELS 3 Zrotation Xrotation Yrotation
    JOINT KneeRight
    {
      OFFSET 10.632264 -33.860024 -1.133055
      CHANNELS 3 Zrotation Xrotation Yrotation
      JOINT AnkleRight
      {
        OFFSET 9.060479 -36.951975 8.596010
        CHANNELS 3 Zrotation Xrotation Yrotation
        JOINT FootRight
        {
          OFFSET 0.341839 -8.287050 -4.880318
          CHANNELS 3 Zrotation Xrotation Yrotation
          End Site
          {
            OFFSET 0 0 0
          }
        }
      }
    }
  }
}
MOTION
Frames: 8
Frame Time: 0.033333
-31.641589 81.196802 319.097030 0.000000 0.000000 25.965258 -0.000000 0.000000 -25.965258 -0.000000 0.000000 0.000000 -0.000000 0.000000 0.000000 0.000000 0.000000 0.000000 -0.000000 0.000000 0.000000 -0.000000 0.000000 0.000000 -0.000000 0.000000 0.000000 -0.000000 0.000000 0.000000 0.000000 0.000000 0.000000 0.000000 0.000000 0.000000 -0.000000 0.000000 0.000000 -0.000000 0.000000 0.000000 -0.000000 0.000000 0.000000 -0.000000 0.000000 0.000000 0.000000 0.000000 0.000000 0.000000 0.000000 0.000000 -0.000000 0.000000 -25.965258 -0.000000 0.000000 0.000000 -0.000000 0.000000 0.000000 0.000000 0.000000 0.000000 -0.000000 0.000000 -25.965258 -0.000000 0.000000 0.000000 -0.000000 0.000000 0.000000 0.000000 0.000000 0.000000
-31.618061 81.216622 319.204620 -0.089424 -0.084066 25.770529 0.117079 0.036826 -25.770632 -0.000000 0.000000 0.000000 -0.000000 0.000000 0.000000 0.000000 0.000000 0.000000 -0.000000 0.000000 0.000000 -0.000000 0.000000 0.000000 -0.000000 0.000000 0.000000 -2.698226 0.125068 0.477365 0.000000 0.000000 0.000000 0.000000 0.000000 0.000000 -0.000000 0.000000 0.000000 -0.809258 2.915620 0.086686 4.705564 -3.090957 -1.707731 -5.248369 2.264369 1.244057 0.000000 0.000000 0.000000 0.000000 0.000000 0.000000 0.117079 0.036826 -25.770632 -0.000000 0.000000 0.000000 -0.000000 0.000000 0.000000 0.000000 0.000000 0.000000 0.117079 0.036826 -25.770632 -0.000000 0.000000 0.000000 -0.000000 0.000000 0.000000 0.000000 0.000000 0.000000
-31.593287 81.236072 319.296995 -0.167047 -0.156984 25.606675 0.218488 0.069369 -25.607036 -0.000000 0.000000 0.000000 -0.000000 0.000000 0.000000 0.000000 0.000000 0.000000 -0.000000 0.000000 0.000000 -1.336172 0.463285 0.336841 1.317657 -1.465434 -0.098445 -4.734678 1.407144 0.742231 0.000000 0.000000 0.000000 0.000000 0.000000 0.000000 -0.000000 0.000000 0.000000 -1.590348 5.582153 0.217780 8.205191 -6.099785 -2.418747 -8.964467 3.867370 2.036222 0.000000 0.000000 0.000000 0.000000 0.000000 0.000000 0.218488 0.069369 -25.607036 -0.000000 0.000000 0.000000 -1.200798 0.571865 0.593169 0.000000 0.000000 0.000000 0.218488 0.069369 -25.607036 -0.000000 0.000000 0.000000 -0.000000 0.000000 0.000000 0.000000 0.000000 0.000000
-31.567266 81.255154 319.374155 -0.232855 -0.218742 25.473373 0.304297 0.097327 -25.474076 -0.000000 0.000000 0.000000 -0.473206 -0.743494 -0.290515 0.000000 0.000000 0.000000 -0.679735 0.497862 -0.138688 -1.253097 0.107158 0.615898 1.864027 -1.825077 -0.178147 -6.152733 2.045158 1.082039 0.000000 0.000000 0.000000 0.000000 0.000000 0.000000 0.924917 0.225452 -0.071852 -3.247641 7.649850 0.440177 10.881947 -8.828524 -2.521260 -11.585999 5.044071 2.529760 0.000000 0.000000 0.000000 0.000000 0.000000 0.000000 0.304297 0.097327 -25.474076 -0.000000 0.000000 0.000000 -1.603678 0.778213 0.788844 0.000000 0.000000 0.000000 0.304297 0.097327 -25.474076 -0.000000 0.000000 0.000000 -0.552808 1.269964 0.381654 0.000000 0.000000 0.000000
-31.539999 81.273868 319.436100 -0.286832 -0.269326 25.370378 0.374567 0.120450 -25.371446 -0.000000 0.000000 0.000000 -0.578813 -0.918137 -0.360649 0.000000 0.000000 0.000000 -0.822304 0.662767 -0.173293 -1.650412 0.023568 0.778442 2.329725 -1.946647 -0.274547 -7.006535 2.656739 1.379544 0.000000 0.000000 0.000000 0.000000 0.000000 0.000000 1.126282 0.277666 -0.086704 -4.089825 9.414998 0.625473 12.932996 -11.159389 -2.258455 -13.380639 5.926400 2.806187 0.000000 0.000000 0.000000 0.000000 0.000000 0.000000 0.374567 0.120450 -25.371446 -0.000000 0.000000 0.000000 -1.874808 0.933881 0.915879 0.000000 0.000000 0.000000 0.374567 0.120450 -25.371446 -0.000000 0.000000 0.000000 -1.509594 3.074120 1.040506 0.000000 0.000000 0.000000
-31.511485 81.292212 319.482831 -0.328964 -0.308722 25.297531 0.429340 0.138538 -25.298936 -0.000000 0.000000 0.000000 -0.658191 -1.056474 -0.417074 0.000000 0.000000 0.000000 -0.922939 0.827033 -0.202396 -2.027399 -0.122678 0.915983 2.710340 -1.832231 -0.385744 -7.328218 3.252617 1.627519 0.000000 0.000000 0.000000 0.000000 0.000000 0.000000 1.274106 0.318484 -0.096755 -4.761644 10.628249 0.800900 14.453569 -13.024621 -1.784698 -14.510054 6.594244 2.905122 0.000000 0.000000 0.000000 0.000000 0.000000 0.000000 0.429340 0.138538 -25.298936 -0.000000 0.000000 0.000000 -2.014255 1.040032 0.973643 0.000000 0.000000 0.000000 0.429340 0.138538 -25.298936 0.154926 0.767697 0.223515 -3.016925 4.786825 1.747074 0.000000 0.000000 0.000000
-31.494129 81.317165 319.516170 -0.367076 -0.334541 25.304643 0.474848 0.145535 -25.306318 -0.000000 0.000000 0.000000 -0.713424 -1.128665 -0.444777 0.000000 0.000000 0.000000 -0.966159 1.084887 -0.234003 -2.274183 -0.695476 0.990073 4.065540 -2.660959 -0.570162 -7.886319 4.701887 1.899920 0.000000 0.000000 0.000000 0.000000 0.000000 0.000000 1.240749 0.382849 -0.066213 -4.701670 9.455028 0.823336 14.169628 -11.695355 -2.307813 -13.021047 5.730867 2.928345 0.000000 0.000000 0.000000 0.000000 0.000000 0.000000 0.474848 0.145535 -25.306318 -0.000000 0.000000 0.000000 -1.861504 0.938478 0.906010 0.000000 0.000000 0.000000 0.474848 0.145535 -25.306318 0.178038 0.811394 0.239412 -3.997928 6.352630 2.411743 0.000000 0.000000 0.000000
-31.453952 81.334042 319.496901 -0.371831 -0.316829 25.230995 0.471412 0.128096 -25.232550 -0.000000 0.000000 0.000000 -0.762272 -1.178533 -0.462542 0.000000 0.000000 0.000000 -0.915720 1.601824 -0.281312 -2.639593 -1.807337 1.053316 4.590747 -1.239621 -0.923981 -7.171848 5.068793 2.143176 0.000000 0.000000 0.000000 0.000000 0.000000 0.000000 1.205650 0.492292 -0.018000 -4.823237 9.433202 0.838712 15.187003 -13.095433 -1.395084 -13.370668 6.170089 2.747600 0.000000 0.000000 0.000000 0.000000 0.000000 0.000000 0.471412 0.128096 -25.232550 -0.000000 0.000000 0.000000 -1.709862 0.977303 0.797466 0.000000 0.000000 0.000000 0.471412 0.128096 -25.232550 0.182788 0.834548 0.246142 -6.747696 10.688610 4.428198 0.000000 0.000000 0.000000
